<svg width="27" height="27" viewBox="0 0 27 27" fill="none" xmlns="http://www.w3.org/2000/svg">
<path d="M17.0862 0.0543458C19.3696 0.119375 21.837 0.275445 23.6671 1.82686C25.4973 3.37827 26.1903 5.61156 26.2906 8.04551C26.43 11.4047 26.1791 14.8587 26.2906 18.2291C26.2497 22.7941 23.7898 25.8617 19.169 26.2723C15.9956 26.5547 12.2462 26.4246 9.04487 26.3224C6.65737 26.2463 4.66747 26.1961 2.72031 24.6261C0.41828 22.7681 0.173026 20.3788 0.074553 17.6085C-0.0239198 14.8383 -0.0257778 11.8005 0.074553 8.92433C0.161878 6.42163 0.306801 4.20878 2.15363 2.3155C4.0692 0.351622 6.63136 0.126807 9.22323 0.0543458C11.8151 -0.0181153 14.5408 -0.0181153 17.0881 0.0543458H17.0862ZM8.54321 2.48458C4.25314 2.64994 2.60326 4.09545 2.43419 8.45612C2.3097 11.6648 2.32271 15.0779 2.48807 18.2774C2.68873 22.1661 4.12866 23.7157 8.06385 23.9591C10.9883 24.1393 14.2769 24.0538 17.2144 23.9554C19.286 23.8866 21.2202 23.9479 22.6917 22.2367C23.9737 20.7466 23.866 18.8812 23.9217 17.0418C24.009 14.175 24.0852 11.061 23.9217 8.20343C23.6764 3.87249 21.8723 2.61278 17.6789 2.46972C14.7619 2.36939 11.4584 2.37496 8.54136 2.48644L8.54321 2.48458Z" fill="white"/>
<path d="M19.9364 13.2164C19.9364 16.949 16.9097 19.9757 13.177 19.9757C9.44437 19.9757 6.41772 16.949 6.41772 13.2164C6.41772 9.48368 9.44437 6.45703 13.177 6.45703C16.9097 6.45703 19.9364 9.48368 19.9364 13.2164ZM17.5619 13.2164C17.5619 10.7954 15.598 8.83153 13.177 8.83153C10.7561 8.83153 8.79222 10.7954 8.79222 13.2164C8.79222 15.6373 10.7561 17.6012 13.177 17.6012C15.598 17.6012 17.5619 15.6373 17.5619 13.2164Z" fill="white"/>
<path d="M20.2039 7.76891C21.0761 7.76891 21.7832 7.06184 21.7832 6.18963C21.7832 5.31742 21.0761 4.61035 20.2039 4.61035C19.3317 4.61035 18.6246 5.31742 18.6246 6.18963C18.6246 7.06184 19.3317 7.76891 20.2039 7.76891Z" fill="white"/>
</svg>
